<svg width="400" height="508" viewBox="0 0 400 508" fill="none" xmlns="http://www.w3.org/2000/svg">
<path d="M197.85 121.689C222.607 141.585 213.974 236.552 218.623 251.162C223.271 265.772 243.194 277.726 243.194 277.726L215.408 310.267C215.408 310.267 192.165 306.229 174.5 268.375C156.835 230.522 197.85 121.689 197.85 121.689Z" fill="#263238"/>
<path opacity="0.2" d="M197.85 121.689C222.607 141.585 213.974 236.552 218.623 251.162C223.271 265.772 243.194 277.726 243.194 277.726L215.408 310.267C215.408 310.267 192.165 306.229 174.5 268.375C156.835 230.522 197.85 121.689 197.85 121.689Z" fill="black"/>
<path d="M171.468 330.192C171.468 330.192 349.447 280.544 371.708 342.996C393.968 405.448 232.565 455.202 143.23 458.363C53.8956 461.524 17.3967 398.621 43.7482 339.038L171.468 330.192Z" fill="#C084FC"/>
<path opacity="0.2" d="M171.468 330.192C171.468 330.192 349.447 280.544 371.708 342.996C393.968 405.448 232.565 455.202 143.23 458.363C53.8956 461.524 17.3967 398.621 43.7482 339.038L171.468 330.192Z" fill="black"/>
<path d="M345.913 431.266C345.814 431.33 345.699 431.364 345.581 431.364C345.463 431.364 345.348 431.33 345.249 431.266C345.161 431.206 345.097 431.118 345.068 431.016C345.039 430.914 345.047 430.805 345.09 430.708C345.382 429.725 348.357 421.118 351.332 420.215C351.654 420.145 351.988 420.158 352.303 420.25C352.619 420.343 352.906 420.514 353.139 420.746C353.552 421.094 353.866 421.546 354.048 422.054C354.23 422.563 354.274 423.111 354.175 423.642C353.693 425.248 352.717 426.661 351.386 427.68C349.68 429.046 347.847 430.247 345.913 431.266ZM346.684 429.592C349.469 428.376 351.722 426.198 353.033 423.456C353.111 423.091 353.082 422.712 352.95 422.364C352.818 422.015 352.589 421.712 352.289 421.49C352.21 421.387 352.1 421.313 351.975 421.279C351.85 421.246 351.718 421.254 351.598 421.304C351.338 421.377 351.101 421.514 350.907 421.703C349.062 424.057 347.666 426.732 346.79 429.592H346.684Z" fill="#C084FC"/>
<path d="M345.753 431.373C345.655 431.404 345.55 431.405 345.451 431.376C345.352 431.348 345.263 431.292 345.195 431.214C344.903 430.975 340.786 425.742 341.476 422.235C341.556 421.801 341.722 421.387 341.964 421.018C342.205 420.648 342.518 420.331 342.884 420.084C343.199 419.781 343.607 419.594 344.042 419.556C344.477 419.517 344.912 419.628 345.275 419.871C347.427 421.385 347.161 428.345 346.099 431.001V431.267L345.753 431.373ZM343.389 421.146C343.025 421.473 342.782 421.913 342.698 422.395C342.247 424.626 344.319 427.973 345.355 429.567C346.019 426.592 345.806 421.598 344.531 420.827C344.398 420.827 344.133 420.535 343.495 420.987L343.283 421.146H343.389Z" fill="#C084FC"/>
<path d="M164.564 462.851C164.596 462.74 164.657 462.639 164.741 462.559C164.825 462.479 164.929 462.424 165.043 462.4C165.147 462.386 165.253 462.407 165.345 462.46C165.436 462.513 165.507 462.594 165.547 462.692C166.079 463.595 170.143 471.724 168.682 474.486C168.519 474.769 168.282 475.003 167.996 475.162C167.711 475.321 167.388 475.399 167.061 475.389C166.527 475.453 165.985 475.37 165.494 475.151C165.003 474.931 164.581 474.582 164.272 474.141C163.46 472.668 163.134 470.976 163.342 469.306C163.539 467.12 163.948 464.958 164.564 462.851ZM165.202 464.551C164.153 467.407 164.153 470.542 165.202 473.397C165.41 473.709 165.704 473.955 166.047 474.106C166.391 474.256 166.77 474.305 167.141 474.247C167.272 474.255 167.403 474.224 167.516 474.158C167.63 474.092 167.721 473.993 167.779 473.875C167.879 473.629 167.941 473.37 167.965 473.105C167.565 470.111 166.629 467.214 165.202 464.551Z" fill="#C084FC"/>
<path d="M207.679 402.764L176.201 425.848L161.086 436.925L170.941 454.165L186.295 445.771L223.777 425.264L207.679 402.764Z" fill="#EBB376"/>
<path d="M175.825 453.633L166.315 432.674C166.189 432.399 166.01 432.151 165.787 431.947C165.564 431.742 165.303 431.584 165.018 431.482C164.733 431.381 164.43 431.338 164.128 431.355C163.826 431.373 163.531 431.451 163.26 431.585L153.006 436.605C153.006 436.605 138.741 442.37 137.068 446.992C131.755 460.54 151.651 507.425 157.841 507.452C160.099 507.452 161.454 503.945 161.772 501.714C162.755 494.595 162.941 476.744 163.844 470.82C164.907 463.913 171.813 458.6 175.134 456.475C175.563 456.157 175.868 455.698 175.994 455.179C176.12 454.66 176.06 454.113 175.825 453.633Z" fill="#263238"/>
<path d="M164.591 462.665C164.64 462.574 164.713 462.499 164.802 462.447C164.891 462.396 164.992 462.37 165.095 462.372C165.467 462.372 172.082 463.036 174.127 465.985C174.629 466.724 174.82 467.63 174.658 468.509C174.656 468.945 174.504 469.367 174.229 469.705C173.954 470.043 173.571 470.277 173.144 470.368C170.488 470.846 165.759 465.799 164.617 463.196V462.957C164.582 462.863 164.573 462.763 164.591 462.665ZM173.543 468.137C173.574 467.644 173.433 467.156 173.144 466.755C171.869 464.896 168.017 464.099 166.105 463.701C167.752 466.357 171.418 469.545 172.905 469.252C173.064 469.252 173.383 469.252 173.516 468.402V468.137H173.543Z" fill="#C084FC"/>
<path opacity="0.2" d="M207.678 402.764L176.199 425.848L186.294 445.771L223.775 425.264L207.678 402.764Z" fill="black"/>
<path d="M193.467 447.073L203.827 444.762L186.64 411.929L177.023 421.731L193.467 447.073Z" fill="#C084FC"/>
<path opacity="0.6" d="M193.467 447.073L203.827 444.762L186.64 411.929L177.023 421.731L193.467 447.073Z" fill="white"/>
<path d="M272.809 442.504L311.326 448.852L329.842 451.907L335.234 432.781L318.499 427.707L277.643 415.276L272.809 442.504Z" fill="#EBB376"/>
<path d="M331.464 429.673L323.123 451.11C323.017 451.395 322.967 451.697 322.978 452.001C322.988 452.304 323.059 452.602 323.184 452.879C323.31 453.155 323.489 453.404 323.711 453.611C323.933 453.818 324.194 453.979 324.478 454.086L335.237 457.884C335.237 457.884 349.342 464.047 353.831 462.081C367.113 456.343 386.824 409.378 382.494 404.942C380.9 403.322 377.473 404.809 375.64 406.164C369.876 410.414 357.046 422.793 352.131 426.273C346.447 430.364 337.76 429.089 333.988 428.265C333.469 428.163 332.93 428.248 332.468 428.506C332.005 428.763 331.65 429.177 331.464 429.673Z" fill="#263238"/>
<path opacity="0.2" d="M272.809 442.504L311.326 448.852L318.499 427.707L277.643 415.276L272.809 442.504Z" fill="black"/>
<path d="M311.859 423.828C311.859 423.828 151.731 329.366 97.5403 331.89C43.3497 334.413 38.6479 388.232 60.9882 418.117C83.3285 448.001 124.742 455.306 124.742 455.306C124.742 455.306 96.6371 415.46 100.701 404.409C104.766 393.359 120.253 430.814 120.253 430.814C120.253 430.814 219.469 443.804 305.908 451.136L311.859 423.828Z" fill="#C084FC"/>
<path d="M314.407 421.278L305.508 415.302L294.086 450.393H307.793L314.407 421.278Z" fill="#C084FC"/>
<path opacity="0.6" d="M314.407 421.278L305.508 415.302L294.086 450.393H307.793L314.407 421.278Z" fill="white"/>
<path d="M192.426 346.793C163.445 291.008 172.663 206.136 197.739 121.689C180.207 107.052 110.264 97.1706 56.9497 112.684C56.9497 112.684 23.1072 238.093 27.0918 375.083L192.426 346.793Z" fill="#263238"/>
<path d="M130.906 135.396C107.609 135.396 92.4414 110.957 92.4414 110.957C122.99 100.331 123.096 68.0029 123.096 68.0029L134.864 79.5052L151.626 95.9217C137.68 105.804 144.268 114.357 148.704 118.156C149.611 118.968 150.589 119.697 151.626 120.334C151.626 120.334 154.203 135.396 130.906 135.396Z" fill="#EBB376"/>
<path opacity="0.2" d="M148.708 118.156C120.125 121.37 122.144 78.5753 122.144 78.5753C126.431 78.5074 130.716 78.8185 134.948 79.5051L151.71 95.9216C137.684 105.803 144.272 114.357 148.708 118.156Z" fill="black"/>
<path d="M171.02 35.9934C160.208 40.4561 162.28 52.2771 180.237 73.8205C191.288 64.284 197.291 42.6078 191.474 35.648C185.656 28.6883 180.476 32.0353 171.02 35.9934Z" fill="#263238"/>
<path d="M187.01 83.8104C186.03 86.6932 184.877 89.5141 183.556 92.2577C172.931 114.014 142.169 118.237 128.569 96.7205L128.409 96.508C119.431 82.0306 122.804 68.5095 126.55 45.0801C127.384 39.6494 129.586 34.52 132.947 30.1739C136.309 25.8278 140.72 22.4077 145.767 20.235C150.813 18.0623 156.329 17.2083 161.797 17.7533C167.264 18.2984 172.503 20.2245 177.021 23.3507C194.926 35.8092 193.863 63.8077 187.01 83.8104Z" fill="#EBB376"/>
<path d="M159.621 59.2387C159.196 61.1247 159.86 62.8779 161.082 63.1436C162.304 63.4092 163.738 62.1342 164.057 60.2481C164.376 58.3621 163.818 56.6354 162.623 56.3432C161.427 56.051 160.152 57.4058 159.621 59.2387Z" fill="#263238"/>
<path d="M180.98 64.0719C180.555 65.9314 181.219 67.6846 182.468 67.9503C183.716 68.2159 185.124 66.9674 185.469 65.0548C185.815 63.1422 185.204 61.4155 183.982 61.1499C182.76 60.8842 181.405 62.1859 180.98 64.0719Z" fill="#263238"/>
<path d="M173.81 63.3826C174.74 69.637 176.528 75.7334 179.123 81.4992C175.032 83.8369 169.746 81.1539 169.746 81.1539L173.81 63.3826Z" fill="#D58745"/>
<path d="M155.292 51.1886C155.038 51.1724 154.8 51.0581 154.628 50.8698C154.522 50.7659 154.438 50.6419 154.38 50.5051C154.323 50.3683 154.293 50.2213 154.293 50.0728C154.293 49.9244 154.323 49.7775 154.38 49.6407C154.438 49.5038 154.522 49.3798 154.628 49.276C155.959 48.0582 157.565 47.1806 159.309 46.7181C161.053 46.2555 162.883 46.2217 164.642 46.6196C164.92 46.6943 165.157 46.876 165.302 47.1248C165.446 47.3737 165.486 47.6695 165.413 47.9478C165.316 48.2279 165.118 48.4619 164.857 48.6043C164.597 48.7467 164.293 48.7873 164.005 48.7181C162.606 48.3995 161.15 48.4239 159.763 48.7893C158.375 49.1547 157.096 49.8502 156.036 50.8166C155.842 51.0276 155.577 51.16 155.292 51.1886Z" fill="#263238"/>
<path d="M192.322 59.052C192.115 58.9958 191.926 58.8847 191.777 58.7304C191.627 58.5762 191.522 58.3845 191.472 58.1755C191.184 56.7861 190.572 55.4845 189.686 54.3766C188.8 53.2687 187.664 52.3859 186.372 51.8001C186.091 51.6924 185.862 51.4803 185.733 51.2082C185.605 50.936 185.586 50.6247 185.681 50.339C185.783 50.0599 185.99 49.8316 186.258 49.7027C186.526 49.5737 186.834 49.5543 187.116 49.6484C188.762 50.3591 190.214 51.4533 191.35 52.8396C192.487 54.226 193.276 55.8643 193.65 57.6176C193.686 57.7607 193.693 57.9093 193.671 58.0551C193.648 58.2008 193.598 58.3408 193.521 58.4667C193.444 58.5927 193.344 58.7022 193.225 58.789C193.105 58.8758 192.97 58.9381 192.827 58.9724H192.322V59.052Z" fill="#263238"/>
<path d="M140.334 26.751C150.296 32.8873 146.364 44.2301 125.219 62.6124C115.789 51.4555 113.318 29.0621 120.199 23.1649C127.079 17.2677 131.621 21.4117 140.334 26.751Z" fill="#263238"/>
<path d="M111.385 61.1764C111.556 64.1298 112.307 67.0205 113.598 69.6826C114.888 72.3448 116.691 74.726 118.903 76.6898C124.853 82.0026 131.202 77.3804 132.397 69.9956C133.487 63.3281 131.654 52.5962 124.428 50.2586C117.203 47.9209 110.987 53.8713 111.385 61.1764Z" fill="#EBB376"/>
<path d="M151.629 81.3911C151.629 81.3911 154.073 89.8385 165.389 91.8042" stroke="#263238" stroke-width="13.5963" stroke-linecap="round" stroke-linejoin="round"/>
<path d="M171.977 63.541C171.977 65.1171 171.51 66.6579 170.634 67.9685C169.759 69.279 168.514 70.3004 167.058 70.9036C165.602 71.5067 163.999 71.6645 162.454 71.3571C160.908 71.0496 159.488 70.2906 158.373 69.1761C157.259 68.0616 156.5 66.6416 156.192 65.0957C155.885 63.5498 156.043 61.9475 156.646 60.4913C157.249 59.0351 158.27 57.7905 159.581 56.9148C160.891 56.0391 162.432 55.5718 164.008 55.5718C166.122 55.5718 168.149 56.4114 169.643 57.9059C171.138 59.4005 171.977 61.4274 171.977 63.541Z" stroke="#263238" stroke-width="2" stroke-linecap="round" stroke-linejoin="round"/>
<path d="M193.681 68.0029C193.681 69.5791 193.213 71.1198 192.338 72.4304C191.462 73.7409 190.217 74.7623 188.761 75.3655C187.305 75.9686 185.703 76.1265 184.157 75.819C182.611 75.5116 181.191 74.7525 180.076 73.638C178.962 72.5235 178.203 71.1036 177.895 69.5577C177.588 68.0118 177.746 66.4094 178.349 64.9532C178.952 63.4971 179.973 62.2525 181.284 61.3768C182.594 60.5011 184.135 60.0337 185.711 60.0337C187.825 60.0337 189.852 60.8733 191.346 62.3679C192.841 63.8624 193.681 65.8893 193.681 68.0029Z" stroke="#263238" stroke-width="2" stroke-linecap="round" stroke-linejoin="round"/>
<path d="M171.977 65.7196C172.926 65.2118 174.032 65.0829 175.072 65.359C176.112 65.6351 177.009 66.2956 177.582 67.2072" stroke="#263238" stroke-linecap="round" stroke-linejoin="round"/>
<path d="M156.036 61.8937C156.036 61.8937 132.952 52.1712 128.648 51.2681" stroke="#263238" stroke-linecap="round" stroke-linejoin="round"/>
<path d="M119.959 23.4826C119.959 23.4826 117.568 4.7284 136.721 1.62041C155.873 -1.48758 180.923 3.3205 188.68 0C188.376 1.66192 187.731 3.24264 186.784 4.64193C185.838 6.04123 184.611 7.22855 183.181 8.12858C183.181 8.12858 197.791 13.4414 209.294 8.87237C209.294 8.87237 204.299 22.7122 197.844 28.025H203.343C203.343 28.025 192.452 38.4381 179.196 38.6507C165.941 38.8632 153.456 20.6137 140.333 26.75C127.211 32.8863 119.959 23.4826 119.959 23.4826Z" fill="#263238"/>
<path opacity="0.4" d="M187.012 83.8099C186.032 86.6927 184.879 89.5136 183.559 92.2572C172.933 114.013 142.172 118.237 128.571 96.72L128.412 96.5075C121.399 84.049 127.004 70.4482 127.004 70.4482L131.095 57.1662L134.07 54.2175C134.07 54.2175 134.761 67.6855 136.859 71.4841C138.958 75.2828 150.911 76.3985 153.355 77.0626C155.799 77.7267 161.59 84.6334 164.459 86.4929C167.328 88.3524 177.741 86.8116 179.096 88.3523C180.451 89.893 187.012 83.8099 187.012 83.8099Z" fill="black"/>
<path opacity="0.2" d="M67.5781 297.649L122.672 358.747C122.672 358.747 183.557 357.392 257.511 393.545C257.511 393.545 336.858 360.765 344.163 333.537C351.468 306.309 177.58 325.568 177.58 325.568L67.5781 297.649Z" fill="black"/>
<path d="M83.1412 279.719L171.467 308.62C171.467 308.62 203.025 301.634 208.656 301.634C214.288 301.634 236.097 319.352 223.771 325.541C211.445 331.731 177.789 332.528 174.123 330.535C170.457 328.543 72.5156 305.618 72.5156 305.618L83.1412 279.719Z" fill="#EBB376"/>
<path d="M56.9524 112.684C76.9286 108.806 42.2625 230.575 50.763 248.506C59.2635 266.437 92.442 277.726 92.442 277.726L77.1677 311.436C77.1677 311.436 32.0088 302.909 7.43712 271.59C-17.1346 240.271 24.3318 119.006 56.9524 112.684Z" fill="#263238"/>
<path opacity="0.2" d="M56.9524 112.684C76.9286 108.806 42.2625 230.575 50.763 248.506C59.2635 266.437 92.442 277.726 92.442 277.726L77.1677 311.436C77.1677 311.436 32.0088 302.909 7.43712 271.59C-17.1346 240.271 24.3318 119.006 56.9524 112.684Z" fill="black"/>
<path d="M92.4386 275.07L73.8438 311.489L89.7822 314.916L104.392 281.392L92.4386 275.07Z" fill="#263238"/>
<path opacity="0.2" d="M92.4386 275.07L73.8438 311.489L89.7822 314.916L104.392 281.392L92.4386 275.07Z" fill="white"/>
<path d="M128.965 325.541V331.332C128.97 333.263 129.717 335.118 131.052 336.513C132.388 337.907 134.208 338.735 136.137 338.823H349.685C351.677 338.767 353.575 337.967 355.006 336.58C356.437 335.194 357.297 333.321 357.415 331.332V325.541H128.965Z" fill="#263238"/>
<path opacity="0.2" d="M128.965 325.541V331.332C128.97 333.263 129.717 335.118 131.052 336.513C132.388 337.907 134.208 338.735 136.137 338.823H349.685C351.677 338.767 353.575 337.967 355.006 336.58C356.437 335.194 357.297 333.321 357.415 331.332V325.541H128.965Z" fill="white"/>
<path opacity="0.2" d="M208.656 325.541V331.332C208.668 333.266 209.421 335.121 210.761 336.515C212.1 337.908 213.924 338.735 215.855 338.823H349.685C351.676 338.767 353.575 337.967 355.006 336.58C356.436 335.194 357.296 333.321 357.415 331.332V325.541H208.656Z" fill="white"/>
<path d="M215.856 333.51H356.937C359.202 333.4 361.384 332.622 363.208 331.275C365.033 329.928 366.418 328.072 367.191 325.94L399.546 224.439C399.916 223.574 400.063 222.629 399.973 221.692C399.882 220.756 399.557 219.857 399.028 219.079C398.499 218.301 397.782 217.668 396.944 217.24C396.106 216.812 395.174 216.602 394.233 216.629H253.045C250.763 216.795 248.578 217.622 246.757 219.009C244.937 220.396 243.559 222.282 242.792 224.439L210.437 325.807C210.062 326.674 209.917 327.623 210.014 328.563C210.111 329.503 210.447 330.402 210.991 331.175C211.534 331.948 212.267 332.568 213.119 332.977C213.97 333.386 214.913 333.57 215.856 333.51Z" fill="#263238"/>
<path opacity="0.2" d="M215.856 333.51H356.937C359.202 333.4 361.384 332.622 363.208 331.275C365.033 329.928 366.418 328.072 367.191 325.94L399.546 224.439C399.916 223.574 400.063 222.629 399.973 221.692C399.882 220.756 399.557 219.857 399.028 219.079C398.499 218.301 397.782 217.668 396.944 217.24C396.106 216.812 395.174 216.602 394.233 216.629H253.045C250.763 216.795 248.578 217.622 246.757 219.009C244.937 220.396 243.559 222.282 242.792 224.439L210.437 325.807C210.062 326.674 209.917 327.623 210.014 328.563C210.111 329.503 210.447 330.402 210.991 331.175C211.534 331.948 212.267 332.568 213.119 332.977C213.97 333.386 214.913 333.57 215.856 333.51Z" fill="white"/>
<path opacity="0.2" d="M221.168 333.51H356.937C359.202 333.4 361.384 332.622 363.208 331.275C365.033 329.928 366.418 328.072 367.19 325.94L399.545 224.439C399.916 223.574 400.063 222.629 399.972 221.692C399.882 220.756 399.557 219.857 399.028 219.079C398.498 218.301 397.782 217.668 396.944 217.24C396.106 216.812 395.173 216.602 394.233 216.629H258.358C256.075 216.795 253.89 217.622 252.07 219.009C250.249 220.396 248.871 222.282 248.104 224.439L215.749 325.807C215.375 326.674 215.229 327.623 215.326 328.563C215.423 329.503 215.759 330.402 216.303 331.175C216.847 331.948 217.579 332.568 218.431 332.977C219.283 333.386 220.225 333.57 221.168 333.51Z" fill="white"/>
<path opacity="0.2" d="M318.423 263.941L298.898 277.781L307.346 291.594L326.87 277.781L318.423 263.941Z" fill="white"/>
</svg>
